<svg width="580" height="400" xmlns="http://www.w3.org/2000/svg">
 <!-- Created with Method Draw - http://github.com/duopixel/Method-Draw/ -->
 <g>
  <title>background</title>
  <rect fill="#fff" id="canvas_background" height="402" width="582" y="-1" x="-1"/>
 </g>
 <g>
  <title>Layer 1</title>
  <path stroke="#000" id="svg_1" d="m367.927399,147.017985c0,0 14.585214,-60.45041 0,-80.927771c-14.602393,-20.477361 -20.426171,-34.117454 -52.534256,-43.88252s-20.408992,-7.818942 -43.755641,-6.820046c-23.346649,0.981673 -42.81078,13.640092 -42.81078,20.460139c0,0 -14.585214,0.981673 -20.408992,6.837269c-5.840957,5.855595 -15.564433,33.13578 -15.564433,39.973049s4.861738,52.665913 9.723476,62.413757l-5.789419,1.946124c-4.861738,56.540939 19.446952,63.378208 19.446952,63.378208c8.744256,52.665913 17.505692,30.242427 17.505692,43.88252s-8.761436,8.783393 -8.761436,8.783393s-7.765037,21.441812 -27.211989,29.243532c-19.446952,7.784497 -127.401584,49.70367 -136.180199,58.487063c-8.778615,8.800615 -7.782216,49.738115 -7.782216,49.738115l462.930215,0c0,0 1.013578,-40.9375 -7.765037,-49.738115c-8.795794,-8.800615 -116.750426,-50.702566 -136.197378,-58.487063c-19.446952,-7.80172 -27.211989,-29.243532 -27.211989,-29.243532s-8.761436,4.8567 -8.761436,-8.783393s8.761436,8.783393 17.522872,-43.88252c0,0 24.29151,-6.837269 19.446952,-63.378208l-5.840957,0z" stroke-opacity="null" stroke-width="0" fill="#000000"/>
 </g>
</svg>